<?xml version="1.0" encoding="UTF-8"?>
<svg version="1.1" xmlns="http://www.w3.org/2000/svg" width="197" height="256">
<path d="M0 0 C65.01 0 130.02 0 197 0 C197 84.48 197 168.96 197 256 C131.99 256 66.98 256 0 256 C0 171.52 0 87.04 0 0 Z " fill="#FDFDFD" transform="translate(0,0)"/>
<path d="M0 0 C0.43359375 3.1640625 0.43359375 3.1640625 0 7 C-2.31102014 9.15861101 -4.31457759 10.68981105 -6.9375 12.375 C-13.66178563 17.03414922 -19.5524156 22.12812011 -25.3125 27.9375 C-26.39615845 29.0200708 -26.39615845 29.0200708 -27.50170898 30.12451172 C-30.84256639 33.53264006 -33.80730581 36.70702402 -36 41 C-34.824375 41.3403125 -34.824375 41.3403125 -33.625 41.6875 C-28.87698375 43.40660933 -24.47897448 45.68084721 -20 48 C-20.77219432 52.33616811 -22.26476139 55.95110992 -24 60 C-24.95493087 63.26014616 -24.99202557 66.14386368 -24.82421875 69.5 C-24.31351783 84.26538488 -28.27044815 94.65595763 -35.07104492 107.4140625 C-35.38997711 108.0148764 -35.7089093 108.61569031 -36.0375061 109.23471069 C-36.91917776 110.87695111 -37.82422858 112.50657816 -38.73071289 114.13525391 C-40.02800659 117.06321011 -40.36353611 118.84277176 -40 122 C-38.32352563 123.67647437 -36.17415464 123.34638077 -33.87109375 123.53515625 C-32.83662109 123.62216797 -31.80214844 123.70917969 -30.73632812 123.79882812 C-29.64771484 123.88583984 -28.55910156 123.97285156 -27.4375 124.0625 C-26.34501953 124.15337891 -25.25253906 124.24425781 -24.12695312 124.33789062 C-21.41827508 124.56262811 -18.70931834 124.78314089 -16 125 C-15.61781233 126.65614657 -15.28604898 128.32457024 -15 130 C-16 131 -16 131 -19.5625 131.0625 C-20.696875 131.041875 -21.83125 131.02125 -23 131 C-23 135.29 -23 139.58 -23 144 C-21.14375 143.938125 -19.2875 143.87625 -17.375 143.8125 C-12.3058819 143.7945244 -9.20017858 144.19988095 -5 147 C-5 148.32 -5 149.64 -5 151 C-8.77371512 152.3357457 -11.85831347 151.72408671 -15.75 151.0625 C-17.50570313 150.77052734 -17.50570313 150.77052734 -19.296875 150.47265625 C-20.63492187 150.23869141 -20.63492187 150.23869141 -22 150 C-21.835 150.969375 -21.67 151.93875 -21.5 152.9375 C-20.58825139 159.45187778 -20.42663776 164.88826469 -23 171 C-23.40242877 174.82307327 -23.61723256 177.04843313 -21.5 180.3125 C-13.09283686 185.98733512 -2.43632116 184.21364367 6.98974609 182.55419922 C12.88556102 181.41000819 18.48355901 179.67156211 24.125 177.625 C24.90593018 177.34519287 25.68686035 177.06538574 26.49145508 176.77709961 C31.63153684 174.81973787 35.58738042 172.26735954 40 169 C40.66 169 41.32 169 42 169 C43.52120071 166.06048583 44.80645496 163.08504799 46.0234375 160.0078125 C46.405 159.05519531 46.7865625 158.10257813 47.1796875 157.12109375 C47.97280253 155.13312242 48.76190694 153.14354605 49.546875 151.15234375 C51.99149905 145.07359738 54.30863217 139.69136783 59 135 C61.125 135.375 61.125 135.375 63 136 C62.39795914 139.92388986 61.17655086 142.88173932 59.3125 146.375 C57.19294523 150.46741004 55.35571369 154.53729976 53.74047852 158.84423828 C49.1601534 171.01917436 43.6842349 176.09686827 32 182 C29.34847014 183.14737454 26.74918247 184.10122881 24 185 C23.87882812 185.96421875 23.75765625 186.9284375 23.6328125 187.921875 C23.46523437 189.18515625 23.29765625 190.4484375 23.125 191.75 C22.96257812 193.00296875 22.80015625 194.2559375 22.6328125 195.546875 C22 199 22 199 20 203 C-2.11 203 -24.22 203 -47 203 C-47.16043524 182.18798449 -47.16043524 182.18798449 -47.1953125 173.2734375 C-47.21916539 167.20558571 -47.24729419 161.13797682 -47.30175781 155.0703125 C-47.34542084 150.17492903 -47.36918019 145.27980628 -47.37950897 140.38424301 C-47.38686376 138.5224383 -47.40122553 136.66064684 -47.42292023 134.79895401 C-47.63037553 116.24812509 -47.63037553 116.24812509 -43 108 C-42.32868042 106.63307007 -42.32868042 106.63307007 -41.64379883 105.23852539 C-41.25216553 104.53203857 -40.86053223 103.82555176 -40.45703125 103.09765625 C-34.44201658 91.75470604 -31.86648873 82.86967175 -32.02294922 70.06835938 C-31.94766074 63.28278459 -30.45482254 56.31240081 -28 50 C-28.69480469 49.89816406 -29.38960937 49.79632813 -30.10546875 49.69140625 C-33.49052552 48.88282994 -36.22287019 47.53324287 -39.3125 45.9375 C-40.38113281 45.38964844 -41.44976562 44.84179688 -42.55078125 44.27734375 C-43.35902344 43.85582031 -44.16726562 43.43429688 -45 43 C-44.12177002 38.51375899 -41.57999906 35.78829455 -38.625 32.4375 C-38.08480225 31.81907227 -37.54460449 31.20064453 -36.98803711 30.56347656 C-10.03438899 0 -10.03438899 0 0 0 Z " fill="#070707" transform="translate(47,53)"/>
<path d="M0 0 C0.99 1.485 0.99 1.485 2 3 C5.37048967 6.6513638 7.69927907 7.16156923 12.625 7.5625 C14.12933594 7.68818359 14.12933594 7.68818359 15.6640625 7.81640625 C16.43492188 7.87699219 17.20578125 7.93757812 18 8 C18.3384865 12.16626463 18.66985752 16.33306653 19 20.5 C19.09539063 21.67304688 19.19078125 22.84609375 19.2890625 24.0546875 C19.98870096 32.95009077 20.46857612 40.35998358 18 49 C17.54834797 52.86495672 17.61946213 56.1187544 19.1875 59.75 C22.98723663 64.46691443 26.97490727 67.1556531 33 68 C41.73537985 68.63348174 49.64480372 67.73354745 58.13671875 65.65625 C61 65 61 65 64 65 C64 70.28 64 75.56 64 81 C42.88 81 21.76 81 0 81 C0 54.27 0 27.54 0 0 Z " fill="#FCFCFC" transform="translate(0,175)"/>
<path d="M0 0 C2 1 2 1 2.81640625 3.1875 C8.82899152 25.8527429 6.35225036 48.20962902 -4.55859375 68.96484375 C-12.47044653 82.18921159 -24.57892961 94.39843938 -38 102 C-38.66 102 -39.32 102 -40 102 C-39.22356768 113.64648476 -38.00938553 124.67027118 -34.58911133 135.8684082 C-33.37223053 139.95080366 -32.62357498 142.7956472 -34 147 C-35.65 146.67 -37.3 146.34 -39 146 C-39.8011222 143.41928574 -40.59086557 140.83588151 -41.375 138.25 C-41.70757812 137.18458984 -41.70757812 137.18458984 -42.046875 136.09765625 C-45.58510943 124.33823005 -46.27519302 112.93830547 -46.125 100.75 C-46.11493849 99.31120423 -46.10581831 97.87240155 -46.09765625 96.43359375 C-46.0759206 92.95558247 -46.04157033 89.47783755 -46 86 C-44.34385343 85.61781233 -42.67542976 85.28604898 -41 85 C-40 86 -40 86 -39.90234375 88.06640625 C-39.91394531 88.89011719 -39.92554688 89.71382813 -39.9375 90.5625 C-39.94652344 91.38878906 -39.95554688 92.21507812 -39.96484375 93.06640625 C-39.97644531 93.70449219 -39.98804688 94.34257812 -40 95 C-20.01660389 80.95559451 -5.73992592 64.40615496 -1.40625 39.6015625 C0.01090747 27.03791646 -1.22627314 15.26713725 -4 3 C-2.68 2.01 -1.36 1.02 0 0 Z " fill="#080808" transform="translate(181,107)"/>
<path d="M0 0 C3.03122636 4.54683953 4.80472752 9.59950866 6.85058594 14.65209961 C7.62447227 16.56119814 8.40561861 18.46721099 9.1875 20.37304688 C9.91839844 22.17032227 9.91839844 22.17032227 10.6640625 24.00390625 C11.11217285 25.10549072 11.5602832 26.2070752 12.02197266 27.34204102 C13 30 13 30 13 32 C13.50789063 31.55269531 14.01578125 31.10539062 14.5390625 30.64453125 C15.22742188 30.03996094 15.91578125 29.43539062 16.625 28.8125 C17.29789063 28.22082031 17.97078125 27.62914063 18.6640625 27.01953125 C21.41205316 24.64376006 24.20936375 22.32553021 27 20 C27 38.15 27 56.3 27 75 C25.05074584 72.07611876 24.03664818 69.60556689 22.87109375 66.30859375 C22.47599609 65.19935547 22.08089844 64.09011719 21.67382812 62.94726562 C21.0618457 61.20993164 21.0618457 61.20993164 20.4375 59.4375 C19.62472181 57.14416811 18.81096924 54.85118125 17.99609375 52.55859375 C17.63700928 51.54079834 17.2779248 50.52300293 16.90795898 49.47436523 C16.06807054 47.04303886 16.06807054 47.04303886 15 45 C11.72371138 46.48445114 9.11206548 48.37609285 6.3125 50.625 C2.10408163 54 2.10408163 54 1 54 C0.85498706 48.72052609 0.71270571 43.44098746 0.57275391 38.16137695 C0.52496809 36.37229516 0.47648731 34.58323178 0.42724609 32.79418945 C0.12682021 21.85930056 -0.07503444 10.93939595 0 0 Z " fill="#040404" transform="translate(56,6)"/>
<path d="M0 0 C0.66 0.33 1.32 0.66 2 1 C1.5153125 1.53367188 1.030625 2.06734375 0.53125 2.6171875 C-3.87538836 7.51533553 -8.08089288 12.52411703 -12.16796875 17.69140625 C-14.39850648 20.50216914 -16.68878916 23.25543712 -19 26 C-13.75824848 28.34205919 -8.46737191 30.25192871 -3 32 C-6.47253128 34.91660769 -9.95734859 37.22362579 -13.9375 39.390625 C-15.08089844 40.01839844 -16.22429687 40.64617187 -17.40234375 41.29296875 C-18.60132714 41.94574498 -19.80054659 42.59808781 -21 43.25 C-29.34251001 47.79792352 -37.47892945 52.45877049 -45.453125 57.62011719 C-46.29359375 58.07547852 -47.1340625 58.53083984 -48 59 C-48.66 58.67 -49.32 58.34 -50 58 C-49.154375 57.03320312 -48.30875 56.06640625 -47.4375 55.0703125 C-41.12738408 47.83522161 -34.90039685 40.57603825 -29 33 C-30.76997474 32.18563132 -32.54101152 31.3735706 -34.3125 30.5625 C-35.29863281 30.11003906 -36.28476563 29.65757813 -37.30078125 29.19140625 C-40.01565699 27.94268008 -40.01565699 27.94268008 -43 27 C-43 26.34 -43 25.68 -43 25 C-41.95585937 24.42894531 -40.91171875 23.85789062 -39.8359375 23.26953125 C-30.82842535 18.31731782 -21.90982097 13.2335543 -13.0625 8 C-12.10972168 7.43643799 -11.15694336 6.87287598 -10.17529297 6.29223633 C-6.73735138 4.25090028 -3.32744599 2.21829733 0 0 Z " fill="#050505" transform="translate(194,57)"/>
<path d="M0 0 C1.27274493 3.69532172 0.79643909 6.69040606 0.22265625 10.515625 C0.03896484 11.76601562 -0.14472656 13.01640625 -0.33398438 14.3046875 C-0.53314453 15.60664063 -0.73230469 16.90859375 -0.9375 18.25 C-1.13547481 19.58062384 -1.33274828 20.91135224 -1.52929688 22.2421875 C-2.01262705 25.49582478 -2.50541559 28.74805445 -3 32 C2.61 30.68 8.22 29.36 14 28 C8.69711661 39.06029963 2.60683569 49.64337671 -3.46533203 60.29443359 C-5.6702116 64.1815598 -7.83994423 68.08782469 -10 72 C-10.33 72 -10.66 72 -11 72 C-10.30712331 61.58295739 -8.60496987 51.3061273 -7 41 C-14.425 41.99 -14.425 41.99 -22 43 C-14.8554472 28.56800334 -7.43624948 14.28311662 0 0 Z " fill="#040404" transform="translate(131,2)"/>
<path d="M0 0 C2.9375 1.3125 2.9375 1.3125 5 3 C5.8971875 3.5878125 5.8971875 3.5878125 6.8125 4.1875 C8.78896551 7.20421052 8.3865991 10.53965238 8 14 C7.15913529 16.84081525 5.94904459 19.4169008 4.625 22.0625 C4.27066895 22.78985352 3.91633789 23.51720703 3.55126953 24.26660156 C0.95231004 29.45103696 -1.94707092 34.40059429 -5.125 39.25 C-5.51993652 39.857229 -5.91487305 40.46445801 -6.32177734 41.09008789 C-9.54821627 45.81816914 -13.1941834 49.95597522 -18.6875 52 C-21 52 -21 52 -22.6875 51 C-26.32973026 45.44993484 -26.26046525 39.38139864 -26 33 C-24.125 32.375 -24.125 32.375 -22 32 C-19.04816899 34.95183101 -18.91336012 37.95511947 -18 42 C-13.26843901 40.50294722 -11.4802928 36.57758226 -9.0625 32.5625 C-8.62373535 31.84473389 -8.1849707 31.12696777 -7.73291016 30.38745117 C-1.05694282 19.90070224 -1.05694282 19.90070224 1 8 C-2.18948483 6.40525759 -5.52957489 6.62308908 -9 7 C-11.08333333 7.91666667 -11.08333333 7.91666667 -12 10 C-12.73041853 13.61023099 -12.73041853 13.61023099 -13 17 C-14.875 17.625 -14.875 17.625 -17 18 C-19 16 -19 16 -19.375 12.75 C-18.84501715 7.45017147 -16.82157883 4.60727544 -12.875 1.125 C-8.57933327 -0.55591307 -4.55321266 -0.56258806 0 0 Z " fill="#080808" transform="translate(136,139)"/>
<path d="M0 0 C0.66 0.66 1.32 1.32 2 2 C1.625 4.125 1.625 4.125 1 6 C-2.46941546 5.54177532 -5.67395049 5.10868317 -9 4 C-14.83922916 3.56783674 -19.46257862 4.06834138 -25 6 C-27.875 5.625 -27.875 5.625 -30 5 C-29.67 3.35 -29.34 1.7 -29 0 C-18.95570017 -3.59030292 -9.91219746 -4.65702381 0 0 Z " fill="#090909" transform="translate(69,131)"/>
<path d="M0 0 C3.52238047 1.56367357 6.27123994 3.69495889 9.25 6.125 C10.14203125 6.84945312 11.0340625 7.57390625 11.953125 8.3203125 C12.62859375 8.87460938 13.3040625 9.42890625 14 10 C12.35 11.32 10.7 12.64 9 14 C0.55353075 7.84965831 0.55353075 7.84965831 -3 4 C-2.01 2.68 -1.02 1.36 0 0 Z " fill="#0A0A0A" transform="translate(143,56)"/>
<path d="M0 0 C5.56818182 0.56818182 5.56818182 0.56818182 7 2 C7.45691383 7.25450902 7.45691383 7.25450902 5.8125 9.9375 C4 11 4 11 1.4375 10.875 C-1 10 -1 10 -3 7 C-2.6758631 3.67759676 -2.39223697 2.39223697 0 0 Z " fill="#0D0D0D" transform="translate(51,138)"/>
<path d="M0 0 C1.65 0 3.3 0 5 0 C4.67 1.98 4.34 3.96 4 6 C2.68 6 1.36 6 0 6 C0 4.02 0 2.04 0 0 Z " fill="#060606" transform="translate(94,40)"/>
</svg>
